USFL
nRows=81
nColumns=2
inDegrees=yes
endheader
time	med_gas_r	
4.50907	 45.709276	
4.58065	 46.480493	
4.65222	 46.476358	
4.72379	 46.461356	
4.79536	 46.486725	
4.86694	 46.497550	
4.93851	 46.471382	
5.01008	 46.456814	
5.08165	 46.470680	
5.15323	 46.471801	
5.2248	 46.485019	
5.29637	 46.426858	
5.36794	 46.457268	
5.43952	 46.419884	
5.51109	 46.294412	
5.58266	 45.158668	
5.65423	 45.188069	
5.72581	 44.284473	
5.79738	 44.792142	
5.86895	 39.986882	
5.94052	 36.038005	
6.0121	 34.386513	
6.08367	 34.567914	
6.15524	 32.201922	
6.22681	 31.837469	
6.29839	 31.416597	
6.36996	 31.457607	
6.44153	 31.143870	
6.5131	 30.915749	
6.58468	 30.999581	
6.65625	 30.785872	
6.72782	 30.583417	
6.7994	 30.507411	
6.87097	 30.592287	
6.94254	 30.633573	
7.01411	 30.647724	
7.08569	 30.672668	
7.15726	 30.640059	
7.22883	 30.589654	
7.3004	 30.544542	
7.37198	 30.508897	
7.44355	 30.492918	
7.51512	 30.476613	
7.58669	 30.480952	
7.65827	 30.453239	
7.72984	 30.434834	
7.80141	 30.418699	
7.87298	 30.433880	
7.94456	 30.433013	
8.01613	 30.342401	
8.0877	 30.288475	
8.15927	 30.196406	
8.23085	 30.157365	
8.30242	 30.116970	
8.37399	 29.968698	
8.44556	 29.957606	
8.51714	 30.005365	
8.58871	 29.954712	
8.66028	 29.900899	
8.73185	 29.982380	
8.80343	 29.944325	
8.875	 29.909687	
8.94657	 29.929392	
9.01815	 29.917879	
9.08972	 29.959730	
9.16129	 29.975107	
9.23286	 29.962448	
9.30444	 29.952649	
9.37601	 29.942637	
9.44758	 29.907905	
9.51915	 29.868508	
9.59073	 29.738471	
9.6623	 29.702241	
9.73387	 29.695237	
9.80544	 29.681051	
9.87702	 31.706782	
9.94859	 33.002578	
10.0202	 34.314394	
10.0917	 35.343604	
10.1633	 36.182044	
10.2349	 38.147466	
